<svg style="display:none;" xmlns="http://www.w3.org/2000/svg" xmlns:xlink="http://www.w3.org/1999/xlink">
<defs>

    <symbol id="logo" viewBox="0 0 200 210">
        <path fill="#95D600" d="M81.7 131.9l-51.1-16.1c-5.2-1.6-8.8-6.7-8.8-12.4v-88c0-8.7 8-14.9 15.9-12.4l51.1 16.1c5.2 1.6 8.8 6.7 8.8 12.4v88c0 8.7-8 14.9-15.9 12.4zM109.6 28.3c-.6 0-1.1-.2-1.5-.5-.8-.5-1.3-1.5-1.3-2.5V25c0-1.3.8-2.4 2-2.8l65.6-22c.3-.1.6-.2.9-.2 1.6 0 3 1.3 3 3 0 1.3-.8 2.4-2 2.8l-65.6 22.3c-.3.1-.6.2-1 .2h-.1z"/>
        <path fill="#FFD700" d="M110.1 35.9l8.5-2.9c3.3-1.1 6.6 1.3 6.6 4.8v8.8c0 2.1-1.3 4-3.3 4.7l-8.5 3.2c-3.3 1.2-6.8-1.2-6.8-4.7v-9.1c.1-2.2 1.5-4.1 3.5-4.8z"/>
        <path fill="#00A8E1" d="M110.1 61.5l8.5-2.9c3.3-1.1 6.6 1.3 6.6 4.8v8.8c0 2.1-1.3 4-3.3 4.7l-8.5 3.2c-3.3 1.2-6.8-1.2-6.8-4.7v-9.1c.1-2.2 1.5-4.1 3.5-4.8z"/>
        <path fill="#FF4612" d="M110.1 87.1l8.5-2.9c3.3-1.1 6.6 1.3 6.6 4.8v8.8c0 2.1-1.3 4-3.3 4.7l-8.5 3.2c-3.3 1.2-6.8-1.2-6.8-4.7v-9.1c.1-2.2 1.5-4.1 3.5-4.8z"/>
        <path fill="#FF8300" d="M134.5 78.6l8.5-2.9c3.3-1.1 6.6 1.3 6.6 4.8v8.8c0 2.1-1.3 4-3.3 4.7l-8.5 3.2c-3.3 1.2-6.8-1.2-6.8-4.7v-9.1c.1-2.2 1.5-4.1 3.5-4.8z"/>
        <path fill="#95D600" d="M154.4 48.4l8.5-2.9c3.3-1.1 6.6 1.3 6.6 4.8v8.8c0 2.1-1.3 4-3.3 4.7l-8.5 3.2c-3.3 1.2-6.8-1.2-6.8-4.7v-9.1c.1-2.2 1.4-4.1 3.5-4.8z"/>
        <path fill="#9364CC" d="M154.4 97.7l8.5-2.9c3.3-1.1 6.6 1.3 6.6 4.8v8.8c0 2.1-1.3 4-3.3 4.7l-8.5 3.2c-3.3 1.2-6.8-1.2-6.8-4.7v-9.1c.1-2.2 1.4-4.1 3.5-4.8z"/>
        <path fill="#00C4B3" d="M111.3 112.7l8.5-2.9c3.3-1.1 6.6 1.3 6.6 4.8v8.8c0 2.1-1.3 4-3.3 4.7l-8.5 3.2c-3.3 1.2-6.8-1.2-6.8-4.7v-9.1c.1-2.2 1.5-4.1 3.5-4.8z"/>
        <g id="typeface">
            <path d="M173.8 170.7l-3.3 1.1c-.8.3-1.3 1-1.3 1.8v3.5c0 1.4 1.4 2.3 2.6 1.8l3.3-1.2c.8-.3 1.3-1 1.3-1.8v-3.4c-.1-1.3-1.4-2.3-2.6-1.8zM0 201.8v-25.4c0-1.1.3-1.9 1-2.4s1.5-.7 2.6-.7c.8 0 1.5.1 2.1.3.6.2 1 .3 1.2.4v10.6c.6-.7 1.3-1.5 2.1-2.3.8-.8 1.6-1.7 2.4-2.5.8-.9 1.6-1.7 2.4-2.4.8-.8 1.5-1.4 2.1-2 .5-.4 1.1-.9 1.7-1.3s1.5-.6 2.5-.6c.6 0 1.2.1 1.7.2.5.2 1 .3 1.3.5.4.2.7.4.9.6l.5.5-1 1-1.8 1.8c-.7.7-1.4 1.4-2.2 2.3l-2.4 2.4c-.8.8-1.5 1.5-2.1 2.2-.6.7-1.2 1.3-1.6 1.7 1.2 1.2 2.3 2.5 3.3 3.7 1.1 1.2 2.1 2.4 3 3.7 1 1.2 1.9 2.5 2.9 3.8 1 1.3 1.9 2.6 2.9 4.1H17c-.7-1-1.5-2-2.4-3.1-.9-1.1-1.8-2.2-2.7-3.4-.9-1.1-1.9-2.2-2.8-3.2-.9-1-1.8-1.9-2.6-2.7V202H0zM33.6 194c.1.3.2.7.4 1 .2.3.6.6 1 .9.4.3 1 .5 1.6.7.7.2 1.5.2 2.4.2.7 0 1.4-.1 2-.2.6-.1 1.2-.3 1.7-.4.5-.1.9-.3 1.2-.4.3-.1.5-.2.5-.3l2.3 4.6c-.2.1-.6.3-1.1.6-.5.2-1.2.5-1.9.7-.8.2-1.7.5-2.7.6-1 .2-2.2.3-3.4.3-1.5 0-3-.2-4.4-.7-1.4-.5-2.5-1.2-3.5-2.2-1-1-1.8-2.1-2.4-3.5-.6-1.4-.9-3-.9-4.7 0-1.7.3-3.2.9-4.6.6-1.4 1.4-2.6 2.4-3.5 1-1 2.2-1.7 3.6-2.3 1.4-.5 2.9-.8 4.5-.8 1.5 0 2.8.2 4 .6 1.2.4 2.2.9 3 1.6.8.7 1.4 1.5 1.9 2.4.4.9.6 1.8.6 2.7 0 1-.2 1.9-.5 2.8-.4.8-1 1.5-1.9 2.1-.9.6-2.2 1-3.8 1.3-1.6.3-3.6.5-6.1.5h-1.4zm-.3-4.3c1.9 0 3.3-.1 4.3-.2s1.8-.3 2.3-.5c.5-.2.8-.5.9-.7.1-.3.2-.6.2-.8 0-.6-.3-1.1-.8-1.5-.5-.4-1.3-.6-2.4-.6-.7 0-1.4.1-1.9.4-.6.3-1 .6-1.4 1-.4.4-.7.9-.9 1.4-.2.4-.3.9-.3 1.5zM50.6 177.3c0-1.1.3-1.8 1-2.3.6-.4 1.5-.7 2.5-.7.7 0 1.4.1 2 .3.6.2 1 .3 1.2.4v5.6h4.8c1.2 0 2.1.2 2.7.7.5.5.8 1.2.8 2.2 0 .7-.1 1.4-.3 2-.2.6-.4 1-.5 1.2h-7.4v6.5c0 .6.1 1.1.3 1.5.2.4.4.7.7.9.3.2.6.4 1 .4.4.1.8.1 1.1.1.8 0 1.5-.1 2.1-.4.6-.2 1.1-.4 1.4-.6l2.6 4.6c-.2.2-.6.5-1.1.7-.5.3-1 .5-1.7.8-.7.2-1.4.5-2.2.6-.8.2-1.7.3-2.6.3-2.6 0-4.6-.7-6.1-2.1-1.5-1.4-2.2-3.2-2.2-5.5v-17.2zM88.6 201.6c-.2.1-.5.1-1.1.2-.6.1-1.3.1-2.2.2s-1.9.2-3 .2c-1.1.1-2.3.1-3.5.1-2.1 0-3.8-.2-5.2-.6-1.4-.4-2.5-.9-3.3-1.5-.8-.6-1.4-1.4-1.7-2.2-.3-.8-.5-1.7-.5-2.7 0-2.5.8-4.4 2.4-5.5 1.6-1.1 4.2-1.6 7.8-1.6h2.2c.6 0 1.1.1 1.5.1 0-1-.4-1.7-1.2-2.3-.8-.6-2.1-.8-3.9-.8-.9 0-1.6 0-2.3.1-.6.1-1.2.2-1.7.4s-.8.3-1.1.4c-.3.1-.5.2-.6.3l-.3-.3c-.2-.2-.3-.4-.5-.6-.2-.3-.3-.6-.5-.9-.1-.3-.2-.7-.2-1.1 0-2.4 2.5-3.6 7.4-3.6 1.6 0 3.1.1 4.5.4 1.4.3 2.6.8 3.7 1.5s1.9 1.6 2.4 2.8c.6 1.2.9 2.6.9 4.4v12.6zm-6.7-8.6c-.2-.1-.6-.1-1.1-.1-.5 0-1.2-.1-2.2-.1-.8 0-1.5.1-2 .2s-.9.3-1.2.6-.5.5-.6.8c-.1.3-.2.6-.2 1 0 .2 0 .5.1.8.1.3.3.5.5.7.3.2.7.4 1.2.6.6.2 1.3.2 2.2.2.7 0 1.4 0 2-.1.6 0 1-.1 1.2-.1V193zM92.7 210v-17.9c0-1.8.2-3.3.5-4.6.4-1.3.9-2.4 1.5-3.3 1-1.4 2.4-2.4 4-3.1 1.6-.7 3.4-1.1 5.4-1.1 1.6 0 3.1.3 4.5.8s2.6 1.3 3.6 2.3c1 1 1.8 2.1 2.4 3.5.6 1.4.9 2.9.9 4.6 0 1.7-.3 3.2-.8 4.6-.5 1.4-1.3 2.5-2.2 3.5-.9 1-2 1.7-3.3 2.2-1.2.5-2.6.8-4 .8-1.5 0-2.8-.2-3.8-.7-1-.5-1.8-1-2.3-1.5v10h-6.4zm11.3-13.8c1.4 0 2.5-.5 3.4-1.4.9-1 1.3-2.2 1.3-3.7s-.4-2.7-1.3-3.6c-.9-.9-2-1.4-3.4-1.4s-2.5.4-3.4 1.3c-.9.9-1.3 2.1-1.3 3.6 0 .7.1 1.4.4 2 .2.6.6 1.2 1 1.6.4.5.9.8 1.5 1.1.5.4 1.1.5 1.8.5zM125.6 194c.1.3.2.7.4 1s.6.6 1 .9c.4.3 1 .5 1.6.7.7.2 1.5.2 2.4.2.7 0 1.4-.1 2-.2.6-.1 1.2-.3 1.7-.4.5-.1.9-.3 1.2-.4.3-.1.5-.2.5-.3l2.3 4.6c-.2.1-.6.3-1.1.6-.5.2-1.2.5-1.9.7-.8.2-1.7.5-2.7.6-1 .2-2.2.3-3.4.3-1.5 0-3-.2-4.4-.7-1.4-.5-2.5-1.2-3.5-2.2-1-1-1.8-2.1-2.4-3.5-.6-1.4-.9-3-.9-4.7 0-1.7.3-3.2.9-4.6.6-1.4 1.4-2.6 2.4-3.5 1-1 2.2-1.7 3.6-2.3s2.9-.8 4.5-.8c1.5 0 2.8.2 4 .6 1.2.4 2.2.9 3 1.6.8.7 1.4 1.5 1.9 2.4.4.9.6 1.8.6 2.7 0 1-.2 1.9-.5 2.8-.4.8-1 1.5-1.9 2.1-.9.6-2.2 1-3.8 1.3-1.6.3-3.6.5-6.1.5h-1.4zm-.3-4.3c1.9 0 3.3-.1 4.3-.2s1.8-.3 2.3-.5c.5-.2.8-.5.9-.7.1-.3.2-.6.2-.8 0-.6-.3-1.1-.8-1.5-.5-.4-1.3-.6-2.4-.6-.7 0-1.4.1-1.9.4-.6.3-1 .6-1.4 1-.4.4-.7.9-.9 1.4-.2.4-.3.9-.3 1.5zM164.7 190.2c0 1.8-.2 3.3-.5 4.6-.4 1.3-.9 2.4-1.5 3.3-1.1 1.4-2.4 2.4-4 3.1-1.6.7-3.4 1.1-5.4 1.1-1.6 0-3.1-.3-4.5-.8s-2.6-1.3-3.6-2.3c-1-1-1.8-2.1-2.4-3.5-.6-1.4-.9-2.9-.9-4.6 0-1.7.3-3.2.8-4.6.5-1.4 1.3-2.5 2.2-3.5.9-1 2-1.7 3.3-2.3 1.2-.5 2.6-.8 4-.8 1.5 0 2.8.3 3.8.8s1.8 1 2.3 1.5V174c0-1.1.3-1.8 1-2.3.6-.4 1.5-.7 2.5-.7.7 0 1.4.1 2 .3.6.2 1 .3 1.1.4v18.5zm-11.3 6c1.4 0 2.5-.4 3.4-1.3.9-.9 1.3-2.1 1.3-3.6 0-.7-.1-1.4-.4-2-.2-.6-.6-1.2-1-1.6-.4-.5-.9-.8-1.5-1.1-.6-.3-1.2-.4-1.9-.4-1.4 0-2.5.5-3.4 1.4-.9 1-1.3 2.2-1.3 3.7s.4 2.7 1.3 3.6c1 .8 2.1 1.3 3.5 1.3zM169 183.6c0-1.1.3-1.8 1-2.3.6-.4 1.5-.7 2.5-.7.7 0 1.4.1 2 .3.6.2 1 .3 1.2.4v20.5H169v-18.2zM200 201.6c-.2.1-.5.1-1.1.2-.6.1-1.3.1-2.2.2s-1.9.2-3 .2c-1.1.1-2.3.1-3.5.1-2.1 0-3.8-.2-5.2-.6-1.4-.4-2.5-.9-3.3-1.5-.8-.6-1.4-1.4-1.7-2.2-.3-.8-.5-1.7-.5-2.7 0-2.5.8-4.4 2.4-5.5 1.6-1.1 4.2-1.6 7.8-1.6h2.2c.6 0 1.1.1 1.5.1 0-1-.4-1.7-1.2-2.3-.8-.6-2.1-.8-3.9-.8-.9 0-1.6 0-2.3.1-.6.1-1.2.2-1.7.4s-.8.3-1.1.4c-.3.1-.5.2-.6.3l-.3-.3c-.2-.2-.3-.4-.5-.6-.2-.3-.3-.6-.5-.9-.1-.3-.2-.7-.2-1.1 0-2.4 2.5-3.6 7.4-3.6 1.6 0 3.1.1 4.5.4 1.4.3 2.6.8 3.7 1.5s1.9 1.6 2.4 2.8c.6 1.2.9 2.6.9 4.4v12.6zm-6.7-8.6c-.2-.1-.6-.1-1.1-.1-.5 0-1.2-.1-2.2-.1-.8 0-1.5.1-2 .2s-.9.3-1.2.6-.5.5-.6.8c-.1.3-.2.6-.2 1 0 .2 0 .5.1.8.1.3.3.5.5.7.3.2.7.4 1.2.6.6.2 1.3.2 2.2.2.7 0 1.4 0 2-.1.6 0 1-.1 1.2-.1V193z"/>
        </g>
    </symbol>


    <symbol id="logo_horz" viewBox="0 0 584.995 132.482">
        <path fill="#95D600" d="M59.906 131.925L8.79 115.8C3.573 114.154 0 109.113 0 103.396v-88.05C0 6.667 7.978.444 15.9 2.943l51.116 16.125c5.218 1.646 8.79 6.687 8.79 12.404v88.05c0 8.68-7.977 14.904-15.9 12.405M87.777 28.265c-.58 0-1.11-.17-1.55-.46-.797-.526-1.302-1.454-1.302-2.51v-.29c0-1.275.813-2.406 2.023-2.812L152.558.156c.31-.103.628-.156.95-.156 1.633 0 2.963 1.332 2.963 2.97 0 1.27-.807 2.4-2.01 2.81L88.85 28.104c-.312.106-.635.16-.96.16h-.113z"/>
        <path fill="#FFD700" d="M88.344 35.862l8.505-2.87c3.254-1.097 6.627 1.325 6.627 4.76v8.75c0 2.093-1.296 3.965-3.253 4.702l-8.505 3.202c-3.286 1.236-6.794-1.19-6.794-4.7V40.62c0-2.156 1.376-4.07 3.418-4.76"/>
        <path fill="#00A8E1" d="M88.344 61.48l8.505-2.868c3.254-1.1 6.627 1.323 6.627 4.76v8.75c0 2.09-1.296 3.963-3.253 4.7l-8.505 3.202c-3.286 1.236-6.795-1.19-6.795-4.7V66.24c0-2.156 1.377-4.07 3.42-4.76"/>
        <path fill="#FF4612" d="M88.344 87.1l8.505-2.87c3.254-1.098 6.627 1.324 6.627 4.76v8.75c0 2.092-1.296 3.964-3.253 4.7l-8.505 3.203c-3.286 1.236-6.795-1.19-6.795-4.7v-9.084c0-2.157 1.377-4.072 3.42-4.76"/>
        <path fill="#FF8300" d="M112.756 78.643l8.505-2.868c3.256-1.1 6.63 1.323 6.63 4.76v8.75c0 2.09-1.297 3.963-3.254 4.7l-8.505 3.202c-3.284 1.236-6.793-1.19-6.793-4.7v-9.084c0-2.156 1.377-4.07 3.42-4.76"/>
        <path fill="#95D600" d="M132.612 48.444l8.505-2.868c3.255-1.1 6.628 1.323 6.628 4.76v8.75c0 2.09-1.296 3.963-3.253 4.7l-8.505 3.202c-3.285 1.236-6.793-1.19-6.793-4.7v-9.084c0-2.156 1.376-4.07 3.418-4.76"/>
        <path fill="#9364CC" d="M132.612 97.74l8.505-2.87c3.255-1.098 6.628 1.324 6.628 4.76v8.75c0 2.092-1.296 3.964-3.253 4.7l-8.505 3.203c-3.285 1.235-6.793-1.19-6.793-4.7V102.5c0-2.157 1.376-4.072 3.418-4.76"/>
        <path fill="#00C4B3" d="M89.558 112.717l8.505-2.868c3.255-1.1 6.628 1.322 6.628 4.76v8.75c0 2.09-1.295 3.963-3.252 4.7l-8.505 3.2c-3.285 1.237-6.793-1.19-6.793-4.7v-9.083c0-2.155 1.376-4.07 3.418-4.76"/>
        <path d="M534.888 28.76l-6.293 2.123c-1.51.51-2.527 1.927-2.527 3.52v6.72c0 2.597 2.595 4.395 5.025 3.48l6.29-2.37c1.452-.544 2.41-1.932 2.41-3.477V32.28c0-2.542-2.497-4.333-4.905-3.52M203.208 88.096V39.668c0-2.16.63-3.678 1.897-4.548 1.268-.873 2.928-1.307 4.983-1.307 1.53 0 2.89.183 4.078.55 1.185.37 1.938.61 2.255.713V55.22c1.214-1.37 2.57-2.857 4.073-4.465 1.508-1.603 3.02-3.22 4.552-4.856 1.53-1.632 3.033-3.184 4.51-4.655 1.478-1.478 2.824-2.77 4.036-3.873.95-.84 2.057-1.646 3.324-2.41 1.268-.767 2.847-1.15 4.75-1.15 1.21 0 2.32.145 3.322.435 1 .294 1.856.634 2.572 1.03.71.396 1.306.804 1.778 1.226.475.42.82.766 1.03 1.027-.265.263-.87.87-1.818 1.817-.95.95-2.07 2.083-3.365 3.396-1.29 1.316-2.705 2.753-4.232 4.308-1.53 1.554-3.035 3.08-4.51 4.58-1.477 1.5-2.838 2.912-4.077 4.227-1.237 1.316-2.225 2.395-2.967 3.235 2.217 2.377 4.326 4.72 6.333 7.01 2.003 2.302 3.94 4.627 5.813 6.977 1.875 2.352 3.72 4.752 5.54 7.21 1.82 2.46 3.68 5.058 5.58 7.806H236.44c-1.372-1.853-2.902-3.844-4.592-5.984-1.687-2.14-3.415-4.28-5.18-6.42-1.77-2.14-3.546-4.19-5.34-6.143-1.797-1.955-3.43-3.673-4.907-5.153v23.7H203.21zM267.38 73.22c.103.635.38 1.25.83 1.857.448.607 1.082 1.174 1.896 1.7.82.53 1.863.95 3.127 1.268 1.268.316 2.796.476 4.588.476 1.374 0 2.668-.12 3.882-.356 1.212-.24 2.268-.488 3.163-.753.897-.264 1.637-.525 2.215-.79.58-.264.923-.447 1.032-.555l4.432 8.865c-.426.265-1.125.634-2.1 1.108-.977.474-2.2.946-3.682 1.424-1.475.474-3.202.883-5.18 1.227-1.978.342-4.154.514-6.53.514-2.95 0-5.722-.474-8.306-1.424-2.585-.95-4.84-2.334-6.765-4.153-1.927-1.823-3.443-4.053-4.552-6.688-1.105-2.637-1.66-5.645-1.66-9.022 0-3.166.554-6.065 1.66-8.702 1.11-2.64 2.64-4.88 4.59-6.728 1.95-1.847 4.246-3.284 6.886-4.312 2.64-1.03 5.485-1.545 8.547-1.545 2.847 0 5.405.386 7.675 1.147 2.268.77 4.18 1.81 5.737 3.126 1.555 1.322 2.743 2.824 3.562 4.513.814 1.688 1.225 3.426 1.225 5.22 0 1.954-.346 3.71-1.03 5.265-.687 1.555-1.913 2.878-3.678 3.956-1.77 1.08-4.168 1.913-7.202 2.49-3.032.585-6.896.876-11.592.876h-2.77zm-.633-8.23c3.534 0 6.277-.13 8.23-.396 1.95-.265 3.402-.604 4.35-1.03.95-.424 1.528-.897 1.742-1.422.207-.53.315-1.053.315-1.584 0-1.11-.502-2.07-1.504-2.89-1.002-.815-2.505-1.226-4.51-1.226-1.423 0-2.663.25-3.718.754-1.055.498-1.94 1.147-2.65 1.936-.714.792-1.256 1.704-1.623 2.73-.372 1.028-.585 2.073-.633 3.127M299.82 41.487c0-2.056.605-3.508 1.82-4.35 1.212-.843 2.824-1.268 4.83-1.268 1.422 0 2.716.172 3.875.514 1.158.343 1.9.568 2.217.67V47.74h9.1c2.373 0 4.06.476 5.066 1.426 1 .95 1.5 2.373 1.5 4.274 0 1.37-.21 2.65-.633 3.836-.425 1.186-.74 1.966-.95 2.333H312.56v12.425c0 1.215.183 2.177.553 2.885.37.712.83 1.28 1.384 1.704.556.425 1.19.702 1.9.83.712.137 1.44.203 2.175.203 1.478 0 2.82-.227 4.04-.674 1.21-.448 2.082-.833 2.607-1.15l4.986 8.703c-.476.425-1.162.898-2.06 1.427-.895.53-1.977 1.025-3.24 1.503-1.268.474-2.694.883-4.274 1.227-1.585.343-3.245.515-4.987.515-4.958 0-8.836-1.305-11.63-3.918-2.797-2.61-4.196-6.103-4.196-10.483V41.487zM372.302 87.86c-.317.1-1.03.224-2.138.355-1.11.13-2.49.276-4.153.432-1.66.16-3.56.287-5.696.4-2.14.103-4.39.156-6.768.156-4.01 0-7.333-.354-9.967-1.07-2.64-.712-4.75-1.673-6.334-2.885-1.582-1.21-2.69-2.625-3.324-4.235-.634-1.607-.95-3.31-.95-5.104 0-4.855 1.556-8.322 4.672-10.406 3.11-2.08 8.043-3.126 14.792-3.126 1.69 0 3.1.028 4.236.076 1.136.056 2.07.135 2.808.24 0-1.847-.75-3.294-2.252-4.348-1.506-1.058-4-1.584-7.48-1.584-1.635 0-3.072.09-4.31.277-1.242.186-2.297.407-3.166.672-.87.26-1.573.524-2.098.788-.53.265-.897.476-1.11.634-.103-.106-.315-.317-.63-.634-.315-.313-.63-.723-.948-1.226-.317-.502-.608-1.067-.875-1.7-.26-.634-.392-1.318-.392-2.06 0-4.59 4.694-6.885 14.086-6.885 3.056 0 5.934.278 8.624.836 2.69.552 5.022 1.502 7 2.847 1.98 1.345 3.536 3.125 4.67 5.34 1.133 2.218 1.702 4.984 1.702 8.31V87.86zm-12.738-16.54c-.476-.105-1.175-.198-2.098-.277-.924-.082-2.308-.12-4.153-.12-1.585 0-2.88.13-3.88.396-1 .264-1.782.622-2.334 1.07-.555.446-.936.96-1.148 1.54-.213.58-.317 1.188-.317 1.822 0 .474.08.977.24 1.5.158.528.498 1.006 1.028 1.427.526.42 1.316.774 2.373 1.065 1.053.294 2.453.436 4.196.436 1.37 0 2.634-.036 3.798-.118 1.158-.078 1.923-.167 2.295-.276V71.32zM380.056 103.92V69.74c0-3.38.34-6.31 1.03-8.788.683-2.48 1.66-4.56 2.927-6.252 2.002-2.635 4.56-4.64 7.674-6.013 3.115-1.373 6.568-2.058 10.366-2.058 3.113 0 6 .515 8.666 1.544 2.662 1.027 4.967 2.464 6.924 4.312 1.95 1.846 3.48 4.088 4.583 6.728 1.11 2.64 1.666 5.537 1.666 8.706 0 3.217-.516 6.117-1.545 8.7-1.027 2.587-2.427 4.802-4.192 6.647-1.77 1.846-3.84 3.27-6.213 4.273-2.372 1.002-4.908 1.506-7.595 1.506-2.955 0-5.393-.466-7.316-1.39-1.93-.918-3.367-1.857-4.318-2.808v19.073h-12.658zm21.68-26.35c2.64 0 4.813-.91 6.53-2.728 1.71-1.82 2.57-4.157 2.57-7.005s-.86-5.14-2.57-6.885c-1.717-1.74-3.89-2.607-6.53-2.607s-4.814.84-6.526 2.53c-1.716 1.687-2.573 4.01-2.573 6.962 0 1.372.223 2.65.672 3.836.448 1.19 1.08 2.218 1.9 3.087.815.87 1.776 1.558 2.886 2.058 1.11.504 2.322.753 3.64.753M442.96 73.22c.106.635.382 1.25.832 1.857.447.607 1.08 1.174 1.897 1.7.817.53 1.86.95 3.124 1.268 1.268.316 2.796.476 4.59.476 1.372 0 2.666-.12 3.88-.356 1.212-.24 2.268-.488 3.162-.753.9-.264 1.637-.525 2.215-.79.58-.264.925-.447 1.034-.555l4.433 8.865c-.427.265-1.124.634-2.1 1.108-.978.474-2.2.946-3.683 1.424-1.475.474-3.202.883-5.18 1.227-1.978.342-4.153.514-6.53.514-2.95 0-5.722-.474-8.307-1.424-2.583-.95-4.84-2.334-6.764-4.153-1.928-1.823-3.443-4.053-4.552-6.688-1.104-2.637-1.66-5.645-1.66-9.022 0-3.166.556-6.065 1.66-8.702 1.11-2.64 2.64-4.88 4.592-6.728 1.95-1.847 4.245-3.284 6.884-4.312 2.642-1.03 5.486-1.545 8.55-1.545 2.846 0 5.402.386 7.67 1.147 2.27.77 4.182 1.81 5.74 3.126 1.555 1.322 2.743 2.824 3.56 4.513.817 1.688 1.227 3.426 1.227 5.22 0 1.954-.346 3.71-1.03 5.265-.687 1.555-1.912 2.878-3.676 3.956-1.77 1.08-4.17 1.913-7.203 2.49-3.033.585-6.897.876-11.593.876h-2.77zm-.633-8.23c3.536 0 6.278-.13 8.23-.396 1.95-.265 3.405-.604 4.352-1.03.95-.424 1.527-.897 1.74-1.422.21-.53.316-1.053.316-1.584 0-1.11-.5-2.07-1.502-2.89-1.005-.815-2.507-1.226-4.513-1.226-1.42 0-2.662.25-3.716.754-1.055.498-1.938 1.147-2.65 1.936-.714.792-1.256 1.704-1.624 2.73-.37 1.028-.583 2.073-.633 3.127M517.66 66.1c0 3.37-.346 6.3-1.033 8.78-.685 2.483-1.66 4.563-2.925 6.252-2.005 2.64-4.563 4.642-7.677 6.013-3.115 1.372-6.567 2.058-10.366 2.058-3.11 0-6-.515-8.663-1.544-2.665-1.03-4.97-2.47-6.925-4.314-1.953-1.845-3.48-4.09-4.59-6.725-1.107-2.635-1.662-5.536-1.662-8.7 0-3.222.515-6.136 1.544-8.745 1.027-2.612 2.424-4.84 4.195-6.688 1.764-1.845 3.835-3.283 6.208-4.312 2.377-1.027 4.906-1.545 7.596-1.545 2.955 0 5.393.49 7.32 1.465 1.926.977 3.364 1.938 4.315 2.89V35.392c0-2.056.603-3.507 1.817-4.35 1.215-.84 2.822-1.268 4.826-1.268 1.426 0 2.705.173 3.84.514 1.133.342 1.86.568 2.177.672V66.1zm-21.685 11.393c2.64 0 4.815-.846 6.53-2.535 1.713-1.685 2.57-4.007 2.57-6.96 0-1.372-.223-2.654-.672-3.84-.45-1.186-1.083-2.215-1.897-3.085-.818-.87-1.78-1.555-2.89-2.056-1.104-.5-2.32-.753-3.64-.753-2.64 0-4.813.912-6.526 2.733-1.717 1.82-2.572 4.154-2.572 7.002 0 2.844.855 5.14 2.572 6.88 1.712 1.74 3.885 2.613 6.525 2.613M525.807 53.356c0-2.056.607-3.51 1.82-4.35 1.212-.844 2.82-1.268 4.827-1.268 1.424 0 2.716.173 3.877.513 1.16.346 1.898.57 2.215.674v39.17h-12.738V53.357zM584.995 87.86c-.317.1-1.03.224-2.138.355-1.11.13-2.49.276-4.153.432-1.66.16-3.562.287-5.698.4-2.137.103-4.39.156-6.767.156-4.01 0-7.334-.354-9.968-1.07-2.64-.712-4.75-1.673-6.334-2.885-1.58-1.21-2.688-2.625-3.322-4.235-.634-1.607-.95-3.31-.95-5.104 0-4.855 1.555-8.322 4.67-10.406 3.11-2.08 8.045-3.126 14.792-3.126 1.69 0 3.1.028 4.237.076 1.135.056 2.07.135 2.807.24 0-1.847-.748-3.294-2.25-4.348-1.507-1.058-4.002-1.584-7.48-1.584-1.637 0-3.074.09-4.313.277-1.24.186-2.296.407-3.165.672-.87.26-1.573.524-2.1.788-.528.265-.896.476-1.108.634-.104-.106-.317-.317-.63-.634-.316-.313-.633-.723-.95-1.226-.317-.502-.606-1.067-.875-1.7-.26-.634-.394-1.318-.394-2.06 0-4.59 4.694-6.885 14.088-6.885 3.055 0 5.933.278 8.623.836 2.69.552 5.02 1.502 7 2.847 1.978 1.345 3.535 3.125 4.67 5.34 1.132 2.218 1.7 4.984 1.7 8.31V87.86zm-12.74-16.54c-.474-.105-1.174-.198-2.096-.277-.925-.082-2.31-.12-4.156-.12-1.584 0-2.878.13-3.877.396-1.003.264-1.784.622-2.336 1.07-.552.446-.933.96-1.145 1.54-.214.58-.317 1.188-.317 1.822 0 .474.08.977.24 1.5.158.528.497 1.006 1.028 1.427.523.42 1.315.774 2.373 1.065 1.052.294 2.45.436 4.193.436 1.372 0 2.633-.036 3.8-.118 1.158-.078 1.923-.167 2.293-.276V71.32z"/>
    </symbol>

    <symbol id="desktop" viewBox="0 0 78 40">
        <path d="M67.4 38.6H10.6l-.3-.3c0-.2-.1-.4-.1-.5V2.5c0-1.4 1.1-2.5 2.5-2.5h52.2c1.4 0 2.5 1.1 2.5 2.5v35.3c0 .2 0 .4-.1.5l.1.3zm-56.3-.8h55.5V2.5c0-.9-.7-1.6-1.6-1.6H12.7c-.9 0-1.6.7-1.6 1.6v35.3z"/>
        <path d="M67.3 40.3H10.7C9 40.3 2 39.7.2 38.7c-.2-.2-.2-.4-.2-.5 0-.2.2-.4.4-.4h77.2c.2 0 .3.2.4.4 0 .2 0 .4-.2.5-1.7 1-8.9 1.6-10.5 1.6zM64.1 35.7H13.5V3.3H64v32.4zM39.6 2.1c0 .2-.2.4-.4.4s-.4-.2-.4-.4.2-.4.4-.4.4.1.4.4z"/>
    </symbol>

    <symbol id="android" viewBox="459.6 0 34.9 40">
        <path d="M482 3.9l2-2.9c.1-.2.1-.4-.1-.5-.2-.1-.4-.1-.5.1l-2 2.9c-1.3-.5-2.8-.8-4.4-.8s-3 .3-4.4.8l-2-2.9c-.1-.2-.3-.2-.5-.1s-.2.3-.1.5l1.9 2.8c-3.1 1.4-5.2 4.2-5.5 7.3h21c-.1-3.1-2.3-5.8-5.4-7.2zm-9.3 4.4c-.6 0-1.2-.5-1.2-1.2 0-.6.5-1.2 1.2-1.2.6 0 1.2.5 1.2 1.2s-.6 1.2-1.2 1.2zm8.8 0c-.6 0-1.2-.5-1.2-1.2 0-.6.5-1.2 1.2-1.2.6 0 1.2.5 1.2 1.2-.1.7-.6 1.2-1.2 1.2zM465.2 24.4c0 1.3-1 2.3-2.3 2.3-1.3 0-2.3-1-2.3-2.3V15c0-1.3 1-2.3 2.3-2.3 1.3 0 2.3 1 2.3 2.3v9.4zM466.6 12.7v17.1c0 1 .8 1.8 1.8 1.8h2.2v5.3c0 1.3 1 2.3 2.3 2.3 1.3 0 2.3-1 2.3-2.3v-5.3h3.6v5.3c0 1.3 1 2.3 2.3 2.3 1.3 0 2.3-1 2.3-2.3v-5.3h2.2c1 0 1.8-.8 1.8-1.8V12.7h-20.8zM488.9 24.4c0 1.3 1 2.3 2.3 2.3 1.3 0 2.3-1 2.3-2.3V15c0-1.3-1-2.3-2.3-2.3-1.3 0-2.3 1-2.3 2.3v9.4z"/>
    </symbol>

    <symbol id="phone_icon" viewBox="0 0 22 22">
        <path fill="#FFFFFF" d="M19.968,15.464l-4.917-2.636l-0.375-0.132
		c-0.194,0-0.389,0.103-0.583,0.308l-2.125,2.021c-0.278,0.264-0.57,0.308-0.875,0.132c-2.028-1.288-3.709-3.075-5.042-5.359
		C5.883,9.504,5.911,9.196,6.133,8.874l2.125-2.196c0.139-0.176,0.222-0.38,0.25-0.615c0-0.116-0.042-0.264-0.125-0.439L5.675,0.439
		C5.508,0.176,5.3,0.029,5.05,0C3.605,0.147,2.494,0.601,1.716,1.362C0.354,2.827,0.035,4.979,0.758,7.82
		c0.75,2.782,2.292,5.447,4.625,7.995c1.5,1.553,3.167,2.826,5,3.822c1.694,0.878,3.333,1.332,4.917,1.361
		c0.806,0,1.542-0.146,2.209-0.439c1.75-0.762,2.708-2.225,2.875-4.393C20.357,15.933,20.218,15.698,19.968,15.464L19.968,15.464z"
                />
    </symbol>

    <symbol id="mobDevice" viewBox="0 0 113 154">
        <path fill="none" stroke="#363092" stroke-width="1.5" stroke-miterlimit="10" d="M100.2 153H12.8c-6.6 0-12-5.4-12-12V12.8c0-6.6 5.4-12 12-12h87.4c6.6 0 12 5.4 12 12V141c0 6.6-5.4 12-12 12z"/>
        <path fill="none" stroke="#363092" stroke-width=".75" stroke-miterlimit="10" d="M8.9 14.5H104v119.8H8.9z"/>
        <path fill="#363092" d="M52.623,145.798h7.662c0.965,0,1.754-0.789,1.754-1.754v-1.677    c0-0.965-0.789-1.754-1.754-1.754h-7.662c-0.965,0-1.754,0.789-1.754,1.754v1.677C50.869,145.009,51.658,145.798,52.623,145.798"/>
        <circle fill="none" stroke="#363092" stroke-width=".75" stroke-miterlimit="10" cx="56.5" cy="8.4" r="1.2"/>
        <path id="reflection" opacity=".05" fill="#363092" d="M8.9 114.3V14.5H74"/>
    </symbol>

    <svg id="mobDevice2" viewBox="0 0 600 600">
        <path fill="none" stroke="#363092" stroke-width="1.5" stroke-miterlimit="10" d="M3.506 469.87V129.35c0-25.714 21.038-46.753 46.753-46.753h499.48c25.714 0 46.753 21.04 46.753 46.753v340.52c0 25.714-21.04 46.753-46.753 46.753H50.26c-25.716 0-46.754-21.04-46.754-46.753z"/>
        <path fill="none" stroke="#363092" stroke-width=".75" stroke-miterlimit="10" d="M543.116 114.156v370.52H76.363v-370.52h466.753z"/>
        <path fill="#363092" d="M31.566 284.505v29.852c0 3.76 3.078 6.833 6.834 6.833h6.533c3.76 0 6.834-3.077 6.834-6.837V284.5c0-3.76-3.078-6.833-6.834-6.833H38.4c-3.76 0-6.834 3.07-6.834 6.83"/>
        <circle fill="none" stroke="#363092" stroke-width=".75" stroke-miterlimit="10" cx="566.883" cy="299.61" r="4.676"/>
        <path opacity=".05" fill="#363092" d="M154.286 114.156h388.83v253.636"/>
    </svg>

    <symbol id="aladwaa_logo" viewBox="0 0 195 95">
        <path fill="#EA4A24" d="M169.15 82.09c.456-3.288.71-6.643.71-10.058 0-39.935-32.373-72.308-72.31-72.308-39.934 0-72.308 32.374-72.308 72.308 0 3.415.254 6.77.712 10.058H169.15z"/>
        <path fill="#F6A61C" d="M153.005 82.09c.58-3.267.897-6.623.897-10.058 0-31.672-25.676-57.348-57.35-57.348-31.67 0-57.348 25.676-57.348 57.348 0 3.435.318 6.79.897 10.058h112.906z"/>
        <path fill="#30A449" d="M138.73 82.09c.784-3.226 1.21-6.59 1.21-10.058 0-23.41-18.978-42.387-42.39-42.387-23.41 0-42.387 18.978-42.387 42.387 0 3.468.425 6.832 1.21 10.058h82.356z"/>
        <path fill="#63C8DF" d="M123.068 82.09c1.23-3.114 1.91-6.506 1.91-10.058 0-15.147-12.278-27.427-27.427-27.427-15.145 0-27.426 12.28-27.426 27.427 0 3.552.682 6.943 1.91 10.058h51.035z"/>
        <path d="M-.484 74.41c1.067-2.514 3.384-3.287 5.996-3.054.4.035.81.008 1.213-.002.082-.002.16-.064.106-.04.388-1.596.64-3.14 1.14-4.602 1.104-3.24 5.55-6.63 9.63-6.703 4.655-.086 8.087 1.966 11.027 5.24 1.144 1.275 1.535 2.867.854 4.387-.63 1.41-1.765 2.52-3.59 2.338-.16-.016-3.742-1.11-4.79-.81 4.332.724 5.46 2.306 6.125 2.868 1.643 1.39 2.278 3.55 1.573 5.474-.686 1.87-2.46 3.053-4.616 3.05-6.027-.005-12.056.034-18.08-.085-.977-.02-2.65-.235-3.392-.894-4.578-4.308-3.266-6.995-3.192-7.17zm8.48-2.264c-1.4 0-2.605-.035-3.81.006C2.14 72.224.6 73.74.6 75.628c-.002 1.8 1.52 3.378 3.52 3.39 6.027.038 12.056.018 18.084-.04 1.934-.02 3.47-1.646 3.457-3.45-.012-1.813-1.565-3.328-3.507-3.387-1.034-.03-2.07.006-3.104-.02-1.62-.03-2.744-1.044-2.663-2.374.084-1.382 1.406-2.29 3.068-2.024 1.194.194 2.38.46 3.55.77 1.226.322 2.114-.17 2.837-1.066.743-.924.795-2.05.057-2.863-.937-1.032-2.038-2.03-3.26-2.672-4.498-2.366-10.038-.9-12.917 3.25-1.416 2.05-1.86 4.35-1.724 7.01zm186.296 6.196c0 1.46-.67 2.68-.97 3.05-2.014 2.484-5.12 2.413-7.578.38-2.425-1.997-3.074-4.272-2.972-7.27.168-4.925-.065-9.863-.103-14.795-.02-2.238.065-4.477.04-6.715-.024-2.02 1.092-3.31 2.726-4.138 1.627-.825 3.387-.79 4.81.435 1.444 1.24 4.044 3.312 4.044 6.045.002 8.998.002 14.007.002 23.006zm-3.53-13.932h.016c0-3.78.004-7.56-.006-11.34-.003-.44-.02-.907-.15-1.324-.562-1.81-2.11-2.773-3.932-2.49-1.887.296-3.102 1.667-3.107 3.633-.022 7.646-.02 15.296-.024 22.945-.005 2.287 1.55 3.978 3.646 3.968 2.058-.012 3.553-1.65 3.556-3.92.004-3.826 0-7.65 0-11.474zm-73.634 6.094c-.014-5.077 2.34-8.248 6.318-10.27 1.036-.524 2.317-.737 3.498-.78 2.91-.106 5.828-.034 9.09-.034-1.027-.95-1.784-1.72-2.61-2.4-2.535-2.086-2.85-4.606-.856-7.192 1.4-1.814 5.136-1.922 7.114-.184.644.562 1.24 1.178 1.856 1.766 2.258 2.146 2.23 4.987-.07 7.07-.195.177-.4.344-.568.84 1.172 0 2.353.1 3.513-.02 3.516-.353 5.2 2.122 6.95 4.452.335.444.364 1.192.368 1.802.03 4.095-.113 8.193.055 12.28.102 2.472-2.476 4.808-4.874 4.806-9.04-.01-18.08.072-27.12.09-13.84.022-27.68.028-41.52.016-1.15-.002-2.3-.225-3.56-.355-.48 1.16-.93 2.473-1.55 3.697-2.006 3.95-4.95 6.818-9.42 7.794-6.23 1.36-11.73.1-16.592-4.237-1.784-1.594-2.9-3.208-2.15-5.446.46-1.378 1.622-2.52 2.55-3.89-1.21-.763-1.05-2.314-1.037-3.85.03-3.238-.03-6.478.037-9.715.013-.663.24-1.464.658-1.953 2.656-3.12 5.806-5.177 10.167-5.138 3.286.03 6.543-.035 9.25 2.102 2.978 2.352 6.092 4.63 7.467 8.45.14.39.835.828 1.273.828 12.147.043 24.293.04 36.438.002.624-.002 1.43-.23 1.83-.654 1.107-1.17 2.135-1.442 3.5.126zm-45.397 1.2c-.79-2.017-1.244-3.84-2.163-5.38-4.012-6.726-13.41-8.333-19.485-3.397-1.27 1.034-2.774 2.04-2.817 3.915-.078 3.328-.07 6.658-.015 9.986.028 1.634 1.03 2.5 2.556 2.485 3.463-.027 10.388-.02 10.388-.02 1.94.062 3.144-.75 4.01-2.347.12-.216.314-.39.475-.584-1.228 4.408-6.108 7.414-10.79 6.38-1.125-.248-2.19-.77-3.275-1.194-1.493-.585-3.433.04-4.252 1.395-1.017 1.677-.867 3.495.444 4.512 6.468 5.018 19.426 5.732 23.642-5.776.603-1.648.987-3.377 1.586-5.46.66 2.97 2.64 3.057 4.862 3.047 11.966-.06 23.932-.045 35.898-.008 1.393.003 2.562-.144 3.175-1.73-.206 1.536.647 1.72 1.73 1.72 8.86-.014 17.725-.004 26.586-.02 2.563-.004 4.08-1.56 4.09-4.136.012-3.78.007-7.558.014-11.337.002-2.44-1.288-3.725-3.756-3.725-5.714.002-11.426.004-17.14.012-4.024.004-6.904 1.95-8.51 5.522-.78 1.735-.96 3.74-1.493 5.955-.737-.387-1.656-.866-2.667-1.395-.833 1.523-2.365 1.597-3.996 1.595-11.785-.024-23.572-.015-35.358-.015-1.347-.002-2.69-.002-3.738-.002zm68.136-19.018c.05-1.807-1.67-3.46-3.706-3.567-2.017-.107-4.043 1.64-4.062 3.503-.02 1.833 1.86 3.598 3.837 3.607 1.95.006 3.88-1.735 3.93-3.544zm30.968 18.59v-4.784c0-4.585-.013-9.17.01-13.754.007-1.668 1.286-3.435 2.932-4.013 1.86-.653 3.63-.497 5.152.906.493.457.938.97 1.463 1.387 1.28 1.02 1.898 2.26 1.893 3.952-.016 4.94.12 9.88.142 14.823.013 2.962-.068 5.927-.134 8.892-.04 1.744-2.253 3.822-4.1 3.83-6.16.03-12.32.033-18.48.047-1.314.003-2.46-.39-3.383-1.378-.426-.456-.902-.87-1.394-1.26-1.71-1.345-2.377-3.59-1.624-5.55.75-1.96 2.385-2.942 4.692-2.83.128.007.26-.034.557-.077.035-.5.104-1.017.104-1.53.008-5.083.004-10.163.004-15.244 0-3.346.05-3.466 2.438-5.865.078-.11.184-.72-.687-1.02-.136-.047-.75-.262-.87-.34-1.527-1.01-1.268-2.595-.154-3.928.336-.4 1.186-.52 1.146-1.01-1.995-2.433.416-3.86 2.26-4.59.875-.344 1.763-.658 2.65-.967 1.54-.536 2.522-.228 3.546 1.08.16.208.32.434.53.582 2.122 1.502 2.153 2.995.022 4.58.702 2.77-.42 4.914-3.813 5.61 1.247.666 1.553 1.287 2.078 1.883 1.322 1.495 2.298 2.71 2.282 4.75-.04 5.067.082 10.136.145 15.202.004.21.066.42.1.63l.494-.01zm-11.37 1.04c-.73 0-1.27.013-1.806-.005-2.068-.062-3.63 1.24-3.785 3.173-.142 1.737 1.545 3.493 3.54 3.507 6.03.038 12.06.03 18.09-.003 1.728-.01 3.394-1.68 3.4-3.376.024-7.602.032-15.204.003-22.81-.006-1.44-.682-2.613-2.04-3.235-2.476-1.133-5.037.543-5.05 3.33-.023 5.892-.006 11.786-.004 17.68v1.642h-5.064v-1.404c-.006-5.76-.005-11.52-.022-17.277-.005-1.438-.343-2.784-1.582-3.67-1.163-.834-2.45-.844-3.7-.19-1.436.746-1.96 2.064-1.97 3.585-.025 5.265-.01 10.53-.012 15.794.002 1.024.002 2.05.002 3.262zm1.803-28.787c-.223.04-.392.074-.562.087-1.013.082-1.5.677-1.313 1.62.18.903.835 1.217 1.74.877 1.01-.376 2.02-.737 3.03-1.102 2.468-.887 2.885-2.248 1.356-4.496l1.042-.614c.64-.377 1.57-.637 1.107-1.656-.445-.977-1.31-.958-2.194-.608-1.126.444-2.26.866-3.37 1.345-1.208.52-1.69 1.782-1.178 3.014.15.367.354.715.6 1.166.05.09-.14.34-.258.363zM43.205 67.513V79.39c0 3.626-3.865 6.076-7.063 4.298-1.525-.85-2.793-2.21-4.05-3.466-.366-.364-.4-1.167-.403-1.77-.025-8.412-.02-16.825-.018-25.24 0-2.34 1.268-4.18 3.245-4.733 2.31-.648 4.943.392 6.08 2.396 0 0 2.225 2.782 2.225 5.57-.068 3.688-.018 7.38-.018 11.067zm-10.734-2.37h-.08c0 4.268-.004 8.535.013 12.8 0 .343.08.725.25 1.015.703 1.21 2.923 2.06 4.25 1.675 1.99-.582 2.93-1.743 2.93-3.63.006-8.042.01-16.084.01-24.125 0-2.367-1.446-3.913-3.665-3.92-2.177-.008-3.693 1.583-3.7 3.92-.014 4.09-.006 8.176-.006 12.265z"/>
        <path fill="#fff" d="M7.996 72.146c-.137-2.66.307-4.96 1.725-7.005 2.88-4.15 8.42-5.616 12.92-3.25 1.222.642 2.322 1.637 3.26 2.672.736.814.685 1.94-.058 2.862-.723.9-1.61 1.39-2.837 1.067-1.17-.31-2.355-.574-3.55-.77-1.662-.267-2.982.645-3.067 2.026-.08 1.328 1.044 2.343 2.662 2.376 1.034.022 2.07-.013 3.104.02 1.942.06 3.496 1.573 3.51 3.387.014 1.805-1.524 3.43-3.458 3.447-6.028.06-12.056.08-18.085.043-2-.014-3.52-1.592-3.52-3.392 0-1.888 1.54-3.403 3.587-3.474 1.205-.042 2.41-.006 3.81-.006zm182.767-7.736c0 3.824.004 7.647-.002 11.472 0 2.27-1.496 3.91-3.554 3.92-2.1.013-3.65-1.678-3.648-3.967.006-7.647.002-15.297.023-22.945.008-1.968 1.224-3.338 3.11-3.633 1.82-.284 3.37.678 3.932 2.49.13.417.147.88.15 1.325.01 3.78.006 7.558.006 11.337h-.013zM71.73 71.703h3.735c11.785 0 23.572-.01 35.358.016 1.63.002 3.163-.07 3.996-1.595 1.01.527 1.93 1.01 2.667 1.396.532-2.216.713-4.22 1.494-5.956 1.605-3.572 4.485-5.517 8.51-5.522 5.714-.008 11.426-.008 17.14-.01 2.468 0 3.758 1.283 3.755 3.725-.007 3.78-.002 7.556-.015 11.335-.007 2.58-1.523 4.134-4.088 4.138-8.86.017-17.724.007-26.586.02-1.083 0-1.937-.185-1.73-1.72-.61 1.588-1.78 1.734-3.173 1.73-11.966-.04-23.932-.05-35.898.008-2.222.01-4.202-.078-4.862-3.05-.6 2.086-.983 3.813-1.587 5.46-4.215 11.51-17.172 10.793-23.642 5.775-1.31-1.017-1.46-2.835-.444-4.512.82-1.352 2.76-1.977 4.252-1.39 1.083.422 2.15.943 3.275 1.193 4.68 1.032 9.56-1.974 10.788-6.38-.16.192-.356.368-.474.584-.865 1.596-2.067 2.406-4.01 2.344-3.46-.112-6.923-.003-10.387.024-1.525.014-2.527-.854-2.556-2.485-.058-3.33-.063-6.66.015-9.987.044-1.877 1.548-2.883 2.82-3.915 6.074-4.937 15.472-3.33 19.484 3.394.922 1.544 1.373 3.368 2.167 5.383zm70.562-4.634c-3.524 0-6.894-.014-10.26.002-2.937.012-5.014 1.477-6.43 3.948-.682 1.188-.486 1.462.885 1.466 4.854.01 9.71.016 14.565.018.392 0 .78-.05 1.24-.078V67.07zM63.906 71.81c.012-2.85-2.863-5.347-5.82-5.152-2.94.193-5.474 2.686-5.154 5.153h10.974zM139.9 52.674c-.05 1.812-1.98 3.553-3.93 3.545-1.976-.01-3.854-1.776-3.837-3.607.02-1.863 2.046-3.612 4.062-3.506 2.036.106 3.754 1.76 3.705 3.566zm19.564 19.64V69.05c0-5.264-.015-10.53.012-15.793.01-1.52.534-2.84 1.97-3.586 1.25-.65 2.537-.64 3.7.193 1.24.886 1.577 2.232 1.582 3.67.018 5.757.017 11.517.02 17.277.002.436.002.873.002 1.403h5.065v-1.64c-.002-5.896-.02-11.788.004-17.683.01-2.785 2.57-4.462 5.05-3.33 1.355.623 2.03 1.794 2.037 3.236.03 7.605.02 15.208-.004 22.812-.006 1.696-1.672 3.366-3.4 3.376-6.03.033-12.06.04-18.088.002-1.996-.014-3.682-1.768-3.54-3.507.153-1.937 1.716-3.237 3.784-3.173.534.02 1.07.007 1.803.007zm1.432-30.224c-.516-1.232.002-2.585 1.21-3.105 1.11-.478 2.244-.9 3.37-1.346.885-.35 1.75-.37 2.194.606.464 1.02-.47 1.28-1.107 1.656-.347.205-.693.41-1.043.614 1.528 2.248 1.11 3.61-1.355 4.496-1.01.364-2.02.726-3.03 1.102-.905.34-1.562.025-1.74-.876-.187-.944.3-1.54 1.313-1.622.26-.02.88-.564.188-1.528zM32.47 65.145c0-4.09-.007-8.176.004-12.265.006-2.338 1.524-3.927 3.7-3.92 2.22.007 3.666 1.552 3.666 3.92-.002 8.04-.006 16.083-.01 24.124 0 1.888-.94 3.05-2.932 3.63-1.326.39-3.546-.465-4.25-1.676-.17-.29-.247-.674-.25-1.016-.016-4.264-.01-8.53-.01-12.798h.083z"/>
        <path d="M142.292 67.07v5.43h-1.24c-4.854 0-9.71-.006-14.564-.018-1.37-.002-1.565-.276-.886-1.463 1.417-2.47 3.494-3.937 6.43-3.95 3.367-.013 6.736 0 10.26 0zm-.81 3.646v1.334h-9.59c-1.19 0-2.385-.002-3.576-.006-.337 0-.385-.065-.217-.356.346-.607.854-.968 1.575-.972.827-.002 10.94 0 11.807 0zm-77.576 1.097H52.93c-.318-2.468 2.216-4.96 5.156-5.152 2.958-.193 5.832 2.304 5.82 5.154zm-5.732-.647h4.57c-1.276-1.4-3.1-1.375-4.57 0z"/>
    </symbol>

    <symbol id="play" viewBox="0 0 87 87">
        <circle stroke="#FFF" cx="42.9" cy="42.9" r="42"/>
        <path fill="#FFF" d="M59.7 40.2c-.3-.2-.6-.4-.7-.6-7.8-6.2-15.8-11-24-14.4-.4-.2-.7-.3-1.1-.3-.3 0-.6.1-.9.2-1.2.4-1.8 1.2-1.9 2.4v2.2c-.3 4.3-.5 8.7-.5 13.2 0 6.8.2 11.9.7 15.3 0 .2.1.4.2.7.4 1.3 1.3 1.9 2.6 1.9.3 0 .6-.1 1.1-.3 8.8-3.7 17.3-8.9 25.5-15.6.6-.6.9-1.3 1-2.1 0-.9-.3-1.6-1-2.2-.4 0-.7-.2-1-.4z"/>
    </symbol>

	<symbol id="rect" viewBox="0 0 18.551 22.006">
		<path d="M3.417 3.136L11.922.268c3.255-1.1 6.628 1.323 6.628 4.76v8.75c0 2.09-1.296 3.963-3.253 4.7L6.792 21.68C3.508 22.917 0 20.49 0 16.98V7.895c0-2.156 1.375-4.07 3.417-4.76"/>
	</symbol>

</defs>
</svg>